<mxfile host="app.diagrams.net" agent="Mozilla/5.0 (Windows NT 10.0; Win64; x64) AppleWebKit/537.36 (KHTML, like Gecko) Chrome/132.0.0.0 Safari/537.36 OPR/117.0.0.0" version="26.1.1">
  <diagram name="Página-1" id="eYLxZaMMZ2DkyjhPxQaS">
    <mxGraphModel dx="2371" dy="888" grid="1" gridSize="10" guides="1" tooltips="1" connect="1" arrows="1" fold="1" page="1" pageScale="1" pageWidth="827" pageHeight="1169" math="0" shadow="0">
      <root>
        <mxCell id="0" />
        <mxCell id="1" parent="0" />
        <mxCell id="jKOQNRFLOo-bzm7cOAmP-8" style="rounded=0;orthogonalLoop=1;jettySize=auto;html=1;entryX=1;entryY=0.5;entryDx=0;entryDy=0;endArrow=none;startFill=0;" parent="1" source="jKOQNRFLOo-bzm7cOAmP-10" target="jKOQNRFLOo-bzm7cOAmP-6" edge="1">
          <mxGeometry relative="1" as="geometry" />
        </mxCell>
        <mxCell id="jKOQNRFLOo-bzm7cOAmP-9" style="rounded=0;orthogonalLoop=1;jettySize=auto;html=1;entryX=0;entryY=0.5;entryDx=0;entryDy=0;endArrow=none;startFill=0;" parent="1" source="jKOQNRFLOo-bzm7cOAmP-12" target="jKOQNRFLOo-bzm7cOAmP-7" edge="1">
          <mxGeometry relative="1" as="geometry" />
        </mxCell>
        <mxCell id="jKOQNRFLOo-bzm7cOAmP-1" value="Usuarios" style="rounded=1;arcSize=10;whiteSpace=wrap;html=1;align=center;" parent="1" vertex="1">
          <mxGeometry x="364" y="240" width="100" height="40" as="geometry" />
        </mxCell>
        <mxCell id="jKOQNRFLOo-bzm7cOAmP-21" style="rounded=0;orthogonalLoop=1;jettySize=auto;html=1;entryX=0.5;entryY=1;entryDx=0;entryDy=0;endArrow=none;startFill=0;" parent="1" source="jKOQNRFLOo-bzm7cOAmP-25" target="jKOQNRFLOo-bzm7cOAmP-5" edge="1">
          <mxGeometry relative="1" as="geometry" />
        </mxCell>
        <mxCell id="jKOQNRFLOo-bzm7cOAmP-2" value="Autores" style="rounded=1;arcSize=10;whiteSpace=wrap;html=1;align=center;" parent="1" vertex="1">
          <mxGeometry x="364" y="660" width="100" height="40" as="geometry" />
        </mxCell>
        <mxCell id="jKOQNRFLOo-bzm7cOAmP-22" style="rounded=0;orthogonalLoop=1;jettySize=auto;html=1;entryX=0.5;entryY=1;entryDx=0;entryDy=0;endArrow=none;startFill=0;" parent="1" source="jKOQNRFLOo-bzm7cOAmP-27" target="jKOQNRFLOo-bzm7cOAmP-5" edge="1">
          <mxGeometry relative="1" as="geometry" />
        </mxCell>
        <mxCell id="jKOQNRFLOo-bzm7cOAmP-3" value="Editoriales" style="rounded=1;arcSize=10;whiteSpace=wrap;html=1;align=center;" parent="1" vertex="1">
          <mxGeometry x="650" y="660" width="100" height="40" as="geometry" />
        </mxCell>
        <mxCell id="jKOQNRFLOo-bzm7cOAmP-20" style="rounded=0;orthogonalLoop=1;jettySize=auto;html=1;entryX=0.5;entryY=1;entryDx=0;entryDy=0;endArrow=none;startFill=0;" parent="1" source="jKOQNRFLOo-bzm7cOAmP-23" target="jKOQNRFLOo-bzm7cOAmP-5" edge="1">
          <mxGeometry relative="1" as="geometry" />
        </mxCell>
        <mxCell id="jKOQNRFLOo-bzm7cOAmP-4" value="Secciones" style="rounded=1;arcSize=10;whiteSpace=wrap;html=1;align=center;" parent="1" vertex="1">
          <mxGeometry x="80" y="660" width="100" height="40" as="geometry" />
        </mxCell>
        <mxCell id="jKOQNRFLOo-bzm7cOAmP-15" style="rounded=0;orthogonalLoop=1;jettySize=auto;html=1;entryX=0.5;entryY=1;entryDx=0;entryDy=0;endArrow=none;startFill=0;exitX=1;exitY=0.5;exitDx=0;exitDy=0;" parent="1" source="jKOQNRFLOo-bzm7cOAmP-18" target="jKOQNRFLOo-bzm7cOAmP-7" edge="1">
          <mxGeometry relative="1" as="geometry" />
        </mxCell>
        <mxCell id="jKOQNRFLOo-bzm7cOAmP-5" value="Libros" style="rounded=1;arcSize=10;whiteSpace=wrap;html=1;align=center;" parent="1" vertex="1">
          <mxGeometry x="364" y="450" width="100" height="40" as="geometry" />
        </mxCell>
        <mxCell id="jKOQNRFLOo-bzm7cOAmP-14" style="rounded=0;orthogonalLoop=1;jettySize=auto;html=1;entryX=0.5;entryY=0;entryDx=0;entryDy=0;endArrow=none;startFill=0;exitX=1;exitY=0.5;exitDx=0;exitDy=0;" parent="1" source="jKOQNRFLOo-bzm7cOAmP-16" target="jKOQNRFLOo-bzm7cOAmP-5" edge="1">
          <mxGeometry relative="1" as="geometry" />
        </mxCell>
        <mxCell id="jKOQNRFLOo-bzm7cOAmP-6" value="Préstamos" style="rounded=1;arcSize=10;whiteSpace=wrap;html=1;align=center;" parent="1" vertex="1">
          <mxGeometry x="104" y="240" width="100" height="40" as="geometry" />
        </mxCell>
        <mxCell id="jKOQNRFLOo-bzm7cOAmP-7" value="Reservas" style="rounded=1;arcSize=10;whiteSpace=wrap;html=1;align=center;" parent="1" vertex="1">
          <mxGeometry x="624" y="240" width="100" height="40" as="geometry" />
        </mxCell>
        <mxCell id="jKOQNRFLOo-bzm7cOAmP-11" value="" style="rounded=0;orthogonalLoop=1;jettySize=auto;html=1;entryX=1;entryY=0.5;entryDx=0;entryDy=0;endArrow=none;startFill=0;" parent="1" source="jKOQNRFLOo-bzm7cOAmP-1" target="jKOQNRFLOo-bzm7cOAmP-10" edge="1">
          <mxGeometry relative="1" as="geometry">
            <mxPoint x="364" y="260" as="sourcePoint" />
            <mxPoint x="204" y="260" as="targetPoint" />
          </mxGeometry>
        </mxCell>
        <mxCell id="jKOQNRFLOo-bzm7cOAmP-10" value="N:1" style="shape=rhombus;perimeter=rhombusPerimeter;whiteSpace=wrap;html=1;align=center;" parent="1" vertex="1">
          <mxGeometry x="244" y="230" width="80" height="60" as="geometry" />
        </mxCell>
        <mxCell id="jKOQNRFLOo-bzm7cOAmP-13" value="" style="rounded=0;orthogonalLoop=1;jettySize=auto;html=1;entryX=0;entryY=0.5;entryDx=0;entryDy=0;endArrow=none;startFill=0;" parent="1" source="jKOQNRFLOo-bzm7cOAmP-1" target="jKOQNRFLOo-bzm7cOAmP-12" edge="1">
          <mxGeometry relative="1" as="geometry">
            <mxPoint x="464" y="260" as="sourcePoint" />
            <mxPoint x="624" y="260" as="targetPoint" />
          </mxGeometry>
        </mxCell>
        <mxCell id="jKOQNRFLOo-bzm7cOAmP-12" value="1:N" style="shape=rhombus;perimeter=rhombusPerimeter;whiteSpace=wrap;html=1;align=center;" parent="1" vertex="1">
          <mxGeometry x="504" y="230" width="80" height="60" as="geometry" />
        </mxCell>
        <mxCell id="jKOQNRFLOo-bzm7cOAmP-17" value="" style="rounded=0;orthogonalLoop=1;jettySize=auto;html=1;entryX=0;entryY=0.5;entryDx=0;entryDy=0;endArrow=none;startFill=0;" parent="1" source="jKOQNRFLOo-bzm7cOAmP-6" target="jKOQNRFLOo-bzm7cOAmP-16" edge="1">
          <mxGeometry relative="1" as="geometry">
            <mxPoint x="181" y="280" as="sourcePoint" />
            <mxPoint x="414" y="450" as="targetPoint" />
          </mxGeometry>
        </mxCell>
        <mxCell id="jKOQNRFLOo-bzm7cOAmP-16" value="N:1" style="shape=rhombus;perimeter=rhombusPerimeter;whiteSpace=wrap;html=1;align=center;rotation=45;" parent="1" vertex="1">
          <mxGeometry x="210" y="350" width="80" height="60" as="geometry" />
        </mxCell>
        <mxCell id="jKOQNRFLOo-bzm7cOAmP-19" value="" style="rounded=0;orthogonalLoop=1;jettySize=auto;html=1;entryX=0;entryY=0.5;entryDx=0;entryDy=0;endArrow=none;startFill=0;exitX=0.5;exitY=0;exitDx=0;exitDy=0;" parent="1" source="jKOQNRFLOo-bzm7cOAmP-5" target="jKOQNRFLOo-bzm7cOAmP-18" edge="1">
          <mxGeometry relative="1" as="geometry">
            <mxPoint x="414" y="450" as="sourcePoint" />
            <mxPoint x="674" y="280" as="targetPoint" />
          </mxGeometry>
        </mxCell>
        <mxCell id="jKOQNRFLOo-bzm7cOAmP-18" value="1:N" style="shape=rhombus;perimeter=rhombusPerimeter;whiteSpace=wrap;html=1;align=center;rotation=315;" parent="1" vertex="1">
          <mxGeometry x="550" y="350" width="80" height="60" as="geometry" />
        </mxCell>
        <mxCell id="jKOQNRFLOo-bzm7cOAmP-24" value="" style="rounded=0;orthogonalLoop=1;jettySize=auto;html=1;entryX=0;entryY=0.5;entryDx=0;entryDy=0;endArrow=none;startFill=0;" parent="1" source="jKOQNRFLOo-bzm7cOAmP-4" target="jKOQNRFLOo-bzm7cOAmP-23" edge="1">
          <mxGeometry relative="1" as="geometry">
            <mxPoint x="160" y="660" as="sourcePoint" />
            <mxPoint x="414" y="490" as="targetPoint" />
          </mxGeometry>
        </mxCell>
        <mxCell id="jKOQNRFLOo-bzm7cOAmP-23" value="N:1" style="shape=rhombus;perimeter=rhombusPerimeter;whiteSpace=wrap;html=1;align=center;rotation=325;" parent="1" vertex="1">
          <mxGeometry x="230" y="555" width="80" height="60" as="geometry" />
        </mxCell>
        <mxCell id="jKOQNRFLOo-bzm7cOAmP-26" value="" style="rounded=0;orthogonalLoop=1;jettySize=auto;html=1;entryX=1;entryY=0.5;entryDx=0;entryDy=0;endArrow=none;startFill=0;" parent="1" source="jKOQNRFLOo-bzm7cOAmP-2" target="jKOQNRFLOo-bzm7cOAmP-25" edge="1">
          <mxGeometry relative="1" as="geometry">
            <mxPoint x="414" y="660" as="sourcePoint" />
            <mxPoint x="414" y="490" as="targetPoint" />
          </mxGeometry>
        </mxCell>
        <mxCell id="jKOQNRFLOo-bzm7cOAmP-25" value="1:N" style="shape=rhombus;perimeter=rhombusPerimeter;whiteSpace=wrap;html=1;align=center;rotation=90;" parent="1" vertex="1">
          <mxGeometry x="374" y="550" width="80" height="60" as="geometry" />
        </mxCell>
        <mxCell id="jKOQNRFLOo-bzm7cOAmP-29" value="" style="rounded=0;orthogonalLoop=1;jettySize=auto;html=1;entryX=1;entryY=0.5;entryDx=0;entryDy=0;endArrow=none;startFill=0;" parent="1" source="jKOQNRFLOo-bzm7cOAmP-3" target="jKOQNRFLOo-bzm7cOAmP-27" edge="1">
          <mxGeometry relative="1" as="geometry">
            <mxPoint x="670" y="660" as="sourcePoint" />
            <mxPoint x="414" y="490" as="targetPoint" />
          </mxGeometry>
        </mxCell>
        <mxCell id="jKOQNRFLOo-bzm7cOAmP-27" value="1:N" style="shape=rhombus;perimeter=rhombusPerimeter;whiteSpace=wrap;html=1;align=center;rotation=35;" parent="1" vertex="1">
          <mxGeometry x="504" y="550" width="80" height="60" as="geometry" />
        </mxCell>
        <mxCell id="jKOQNRFLOo-bzm7cOAmP-35" style="rounded=0;orthogonalLoop=1;jettySize=auto;html=1;entryX=0.5;entryY=0;entryDx=0;entryDy=0;endArrow=none;startFill=0;" parent="1" source="jKOQNRFLOo-bzm7cOAmP-30" target="jKOQNRFLOo-bzm7cOAmP-1" edge="1">
          <mxGeometry relative="1" as="geometry" />
        </mxCell>
        <mxCell id="jKOQNRFLOo-bzm7cOAmP-30" value="id_usuario" style="ellipse;whiteSpace=wrap;html=1;align=center;fontStyle=4;" parent="1" vertex="1">
          <mxGeometry x="210" y="100" width="80" height="40" as="geometry" />
        </mxCell>
        <mxCell id="jKOQNRFLOo-bzm7cOAmP-37" style="rounded=0;orthogonalLoop=1;jettySize=auto;html=1;entryX=0.5;entryY=0;entryDx=0;entryDy=0;endArrow=none;startFill=0;" parent="1" source="jKOQNRFLOo-bzm7cOAmP-31" target="jKOQNRFLOo-bzm7cOAmP-1" edge="1">
          <mxGeometry relative="1" as="geometry" />
        </mxCell>
        <mxCell id="jKOQNRFLOo-bzm7cOAmP-31" value="nombre" style="ellipse;whiteSpace=wrap;html=1;align=center;" parent="1" vertex="1">
          <mxGeometry x="400" y="90" width="80" height="40" as="geometry" />
        </mxCell>
        <mxCell id="jKOQNRFLOo-bzm7cOAmP-36" style="rounded=0;orthogonalLoop=1;jettySize=auto;html=1;entryX=0.5;entryY=0;entryDx=0;entryDy=0;endArrow=none;startFill=0;" parent="1" source="jKOQNRFLOo-bzm7cOAmP-32" target="jKOQNRFLOo-bzm7cOAmP-1" edge="1">
          <mxGeometry relative="1" as="geometry" />
        </mxCell>
        <mxCell id="jKOQNRFLOo-bzm7cOAmP-32" value="casa" style="ellipse;whiteSpace=wrap;html=1;align=center;" parent="1" vertex="1">
          <mxGeometry x="304" y="90" width="80" height="40" as="geometry" />
        </mxCell>
        <mxCell id="jKOQNRFLOo-bzm7cOAmP-39" style="rounded=0;orthogonalLoop=1;jettySize=auto;html=1;entryX=0.5;entryY=0;entryDx=0;entryDy=0;endArrow=none;startFill=0;" parent="1" source="jKOQNRFLOo-bzm7cOAmP-33" target="jKOQNRFLOo-bzm7cOAmP-1" edge="1">
          <mxGeometry relative="1" as="geometry" />
        </mxCell>
        <mxCell id="jKOQNRFLOo-bzm7cOAmP-33" value="correo" style="ellipse;whiteSpace=wrap;html=1;align=center;" parent="1" vertex="1">
          <mxGeometry x="584" y="110" width="80" height="40" as="geometry" />
        </mxCell>
        <mxCell id="jKOQNRFLOo-bzm7cOAmP-38" style="rounded=0;orthogonalLoop=1;jettySize=auto;html=1;entryX=0.5;entryY=0;entryDx=0;entryDy=0;endArrow=none;startFill=0;" parent="1" source="jKOQNRFLOo-bzm7cOAmP-34" target="jKOQNRFLOo-bzm7cOAmP-1" edge="1">
          <mxGeometry relative="1" as="geometry" />
        </mxCell>
        <mxCell id="jKOQNRFLOo-bzm7cOAmP-34" value="fecha_registro" style="ellipse;whiteSpace=wrap;html=1;align=center;" parent="1" vertex="1">
          <mxGeometry x="494" y="90" width="80" height="40" as="geometry" />
        </mxCell>
        <mxCell id="jKOQNRFLOo-bzm7cOAmP-46" style="rounded=0;orthogonalLoop=1;jettySize=auto;html=1;entryX=0.5;entryY=1;entryDx=0;entryDy=0;endArrow=none;startFill=0;" parent="1" source="jKOQNRFLOo-bzm7cOAmP-40" target="jKOQNRFLOo-bzm7cOAmP-2" edge="1">
          <mxGeometry relative="1" as="geometry" />
        </mxCell>
        <mxCell id="jKOQNRFLOo-bzm7cOAmP-40" value="id_autor" style="ellipse;whiteSpace=wrap;html=1;align=center;fontStyle=4;" parent="1" vertex="1">
          <mxGeometry x="224" y="840" width="80" height="40" as="geometry" />
        </mxCell>
        <mxCell id="jKOQNRFLOo-bzm7cOAmP-47" style="rounded=0;orthogonalLoop=1;jettySize=auto;html=1;entryX=0.5;entryY=1;entryDx=0;entryDy=0;endArrow=none;startFill=0;" parent="1" source="jKOQNRFLOo-bzm7cOAmP-43" target="jKOQNRFLOo-bzm7cOAmP-2" edge="1">
          <mxGeometry relative="1" as="geometry" />
        </mxCell>
        <mxCell id="jKOQNRFLOo-bzm7cOAmP-43" value="nombre_autor" style="ellipse;whiteSpace=wrap;html=1;align=center;" parent="1" vertex="1">
          <mxGeometry x="310" y="840" width="80" height="40" as="geometry" />
        </mxCell>
        <mxCell id="jKOQNRFLOo-bzm7cOAmP-49" style="rounded=0;orthogonalLoop=1;jettySize=auto;html=1;entryX=0.5;entryY=1;entryDx=0;entryDy=0;endArrow=none;startFill=0;" parent="1" source="jKOQNRFLOo-bzm7cOAmP-44" target="jKOQNRFLOo-bzm7cOAmP-2" edge="1">
          <mxGeometry relative="1" as="geometry" />
        </mxCell>
        <mxCell id="jKOQNRFLOo-bzm7cOAmP-44" value="sangre_pura" style="ellipse;whiteSpace=wrap;html=1;align=center;" parent="1" vertex="1">
          <mxGeometry x="404" y="840" width="80" height="40" as="geometry" />
        </mxCell>
        <mxCell id="jKOQNRFLOo-bzm7cOAmP-50" style="rounded=0;orthogonalLoop=1;jettySize=auto;html=1;entryX=0.5;entryY=1;entryDx=0;entryDy=0;endArrow=none;startFill=0;" parent="1" source="jKOQNRFLOo-bzm7cOAmP-45" target="jKOQNRFLOo-bzm7cOAmP-2" edge="1">
          <mxGeometry relative="1" as="geometry" />
        </mxCell>
        <mxCell id="jKOQNRFLOo-bzm7cOAmP-45" value="nacionalidad" style="ellipse;whiteSpace=wrap;html=1;align=center;" parent="1" vertex="1">
          <mxGeometry x="494" y="840" width="80" height="40" as="geometry" />
        </mxCell>
        <mxCell id="jKOQNRFLOo-bzm7cOAmP-51" value="id_editorial" style="ellipse;whiteSpace=wrap;html=1;align=center;fontStyle=4;" parent="1" vertex="1">
          <mxGeometry x="850" y="660" width="80" height="40" as="geometry" />
        </mxCell>
        <mxCell id="jKOQNRFLOo-bzm7cOAmP-56" style="rounded=0;orthogonalLoop=1;jettySize=auto;html=1;entryX=1;entryY=0.5;entryDx=0;entryDy=0;endArrow=none;startFill=0;" parent="1" source="jKOQNRFLOo-bzm7cOAmP-52" target="jKOQNRFLOo-bzm7cOAmP-3" edge="1">
          <mxGeometry relative="1" as="geometry" />
        </mxCell>
        <mxCell id="jKOQNRFLOo-bzm7cOAmP-52" value="nombre_editorial" style="ellipse;whiteSpace=wrap;html=1;align=center;" parent="1" vertex="1">
          <mxGeometry x="840" y="730" width="100" height="40" as="geometry" />
        </mxCell>
        <mxCell id="jKOQNRFLOo-bzm7cOAmP-55" style="rounded=0;orthogonalLoop=1;jettySize=auto;html=1;entryX=1;entryY=0.5;entryDx=0;entryDy=0;endArrow=none;startFill=0;" parent="1" source="jKOQNRFLOo-bzm7cOAmP-53" target="jKOQNRFLOo-bzm7cOAmP-3" edge="1">
          <mxGeometry relative="1" as="geometry" />
        </mxCell>
        <mxCell id="jKOQNRFLOo-bzm7cOAmP-53" value="pais_origen" style="ellipse;whiteSpace=wrap;html=1;align=center;" parent="1" vertex="1">
          <mxGeometry x="850" y="600" width="80" height="40" as="geometry" />
        </mxCell>
        <mxCell id="jKOQNRFLOo-bzm7cOAmP-54" style="rounded=0;orthogonalLoop=1;jettySize=auto;html=1;entryX=1;entryY=0.5;entryDx=0;entryDy=0;endArrow=none;startFill=0;" parent="1" source="jKOQNRFLOo-bzm7cOAmP-51" target="jKOQNRFLOo-bzm7cOAmP-3" edge="1">
          <mxGeometry relative="1" as="geometry">
            <mxPoint x="770" y="690" as="targetPoint" />
          </mxGeometry>
        </mxCell>
        <mxCell id="jKOQNRFLOo-bzm7cOAmP-61" style="rounded=0;orthogonalLoop=1;jettySize=auto;html=1;entryX=0;entryY=0.5;entryDx=0;entryDy=0;endArrow=none;startFill=0;" parent="1" source="jKOQNRFLOo-bzm7cOAmP-57" target="jKOQNRFLOo-bzm7cOAmP-4" edge="1">
          <mxGeometry relative="1" as="geometry" />
        </mxCell>
        <mxCell id="jKOQNRFLOo-bzm7cOAmP-57" value="id_seccion" style="ellipse;whiteSpace=wrap;html=1;align=center;" parent="1" vertex="1">
          <mxGeometry x="-80" y="610" width="80" height="40" as="geometry" />
        </mxCell>
        <mxCell id="jKOQNRFLOo-bzm7cOAmP-59" style="rounded=0;orthogonalLoop=1;jettySize=auto;html=1;entryX=0;entryY=0.5;entryDx=0;entryDy=0;endArrow=none;startFill=0;" parent="1" source="jKOQNRFLOo-bzm7cOAmP-58" target="jKOQNRFLOo-bzm7cOAmP-4" edge="1">
          <mxGeometry relative="1" as="geometry" />
        </mxCell>
        <mxCell id="jKOQNRFLOo-bzm7cOAmP-58" value="nombre_seccion" style="ellipse;whiteSpace=wrap;html=1;align=center;" parent="1" vertex="1">
          <mxGeometry x="-90" y="710" width="100" height="40" as="geometry" />
        </mxCell>
        <mxCell id="wEcu8I4KG8E5HgLeQW_K-2" style="rounded=0;orthogonalLoop=1;jettySize=auto;html=1;entryX=0;entryY=0.5;entryDx=0;entryDy=0;endArrow=none;startFill=0;" edge="1" parent="1" source="wEcu8I4KG8E5HgLeQW_K-1" target="jKOQNRFLOo-bzm7cOAmP-5">
          <mxGeometry relative="1" as="geometry" />
        </mxCell>
        <mxCell id="wEcu8I4KG8E5HgLeQW_K-1" value="id_libro" style="ellipse;whiteSpace=wrap;html=1;align=center;fontStyle=4;" vertex="1" parent="1">
          <mxGeometry x="210" y="420" width="80" height="40" as="geometry" />
        </mxCell>
        <mxCell id="wEcu8I4KG8E5HgLeQW_K-4" style="rounded=0;orthogonalLoop=1;jettySize=auto;html=1;entryX=0;entryY=0.5;entryDx=0;entryDy=0;endArrow=none;startFill=0;" edge="1" parent="1" source="wEcu8I4KG8E5HgLeQW_K-3" target="jKOQNRFLOo-bzm7cOAmP-5">
          <mxGeometry relative="1" as="geometry" />
        </mxCell>
        <mxCell id="wEcu8I4KG8E5HgLeQW_K-3" value="titulo" style="ellipse;whiteSpace=wrap;html=1;align=center;" vertex="1" parent="1">
          <mxGeometry x="210" y="480" width="80" height="40" as="geometry" />
        </mxCell>
        <mxCell id="wEcu8I4KG8E5HgLeQW_K-6" style="rounded=0;orthogonalLoop=1;jettySize=auto;html=1;entryX=1;entryY=0.5;entryDx=0;entryDy=0;endArrow=none;startFill=0;" edge="1" parent="1" source="wEcu8I4KG8E5HgLeQW_K-5" target="jKOQNRFLOo-bzm7cOAmP-5">
          <mxGeometry relative="1" as="geometry" />
        </mxCell>
        <mxCell id="wEcu8I4KG8E5HgLeQW_K-5" value="año_publicación" style="ellipse;whiteSpace=wrap;html=1;align=center;" vertex="1" parent="1">
          <mxGeometry x="524" y="420" width="100" height="40" as="geometry" />
        </mxCell>
        <mxCell id="wEcu8I4KG8E5HgLeQW_K-8" style="rounded=0;orthogonalLoop=1;jettySize=auto;html=1;entryX=1;entryY=0.5;entryDx=0;entryDy=0;endArrow=none;startFill=0;" edge="1" parent="1" source="wEcu8I4KG8E5HgLeQW_K-7" target="jKOQNRFLOo-bzm7cOAmP-5">
          <mxGeometry relative="1" as="geometry" />
        </mxCell>
        <mxCell id="wEcu8I4KG8E5HgLeQW_K-7" value="stock" style="ellipse;whiteSpace=wrap;html=1;align=center;" vertex="1" parent="1">
          <mxGeometry x="534" y="480" width="80" height="40" as="geometry" />
        </mxCell>
        <mxCell id="wEcu8I4KG8E5HgLeQW_K-11" style="rounded=0;orthogonalLoop=1;jettySize=auto;html=1;entryX=0;entryY=0.5;entryDx=0;entryDy=0;endArrow=none;startFill=0;" edge="1" parent="1" source="wEcu8I4KG8E5HgLeQW_K-10" target="jKOQNRFLOo-bzm7cOAmP-6">
          <mxGeometry relative="1" as="geometry" />
        </mxCell>
        <mxCell id="wEcu8I4KG8E5HgLeQW_K-10" value="id_préstamo" style="ellipse;whiteSpace=wrap;html=1;align=center;fontStyle=4;" vertex="1" parent="1">
          <mxGeometry x="-40" y="190" width="80" height="40" as="geometry" />
        </mxCell>
        <mxCell id="wEcu8I4KG8E5HgLeQW_K-13" style="rounded=0;orthogonalLoop=1;jettySize=auto;html=1;entryX=0;entryY=0.5;entryDx=0;entryDy=0;endArrow=none;startFill=0;" edge="1" parent="1" source="wEcu8I4KG8E5HgLeQW_K-12" target="jKOQNRFLOo-bzm7cOAmP-6">
          <mxGeometry relative="1" as="geometry" />
        </mxCell>
        <mxCell id="wEcu8I4KG8E5HgLeQW_K-12" value="fecha_préstamo" style="ellipse;whiteSpace=wrap;html=1;align=center;" vertex="1" parent="1">
          <mxGeometry x="-50" y="240" width="100" height="40" as="geometry" />
        </mxCell>
        <mxCell id="wEcu8I4KG8E5HgLeQW_K-15" style="rounded=0;orthogonalLoop=1;jettySize=auto;html=1;entryX=0;entryY=0.5;entryDx=0;entryDy=0;endArrow=none;startFill=0;" edge="1" parent="1" source="wEcu8I4KG8E5HgLeQW_K-14" target="jKOQNRFLOo-bzm7cOAmP-6">
          <mxGeometry relative="1" as="geometry" />
        </mxCell>
        <mxCell id="wEcu8I4KG8E5HgLeQW_K-14" value="fecha_devolución" style="ellipse;whiteSpace=wrap;html=1;align=center;" vertex="1" parent="1">
          <mxGeometry x="-50" y="290" width="100" height="40" as="geometry" />
        </mxCell>
        <mxCell id="wEcu8I4KG8E5HgLeQW_K-21" style="rounded=0;orthogonalLoop=1;jettySize=auto;html=1;entryX=1;entryY=0.5;entryDx=0;entryDy=0;endArrow=none;startFill=0;" edge="1" parent="1" source="wEcu8I4KG8E5HgLeQW_K-16" target="jKOQNRFLOo-bzm7cOAmP-7">
          <mxGeometry relative="1" as="geometry" />
        </mxCell>
        <mxCell id="wEcu8I4KG8E5HgLeQW_K-16" value="estado" style="ellipse;whiteSpace=wrap;html=1;align=center;" vertex="1" parent="1">
          <mxGeometry x="820" y="300" width="80" height="40" as="geometry" />
        </mxCell>
        <mxCell id="wEcu8I4KG8E5HgLeQW_K-19" style="rounded=0;orthogonalLoop=1;jettySize=auto;html=1;entryX=1;entryY=0.5;entryDx=0;entryDy=0;endArrow=none;startFill=0;" edge="1" parent="1" source="wEcu8I4KG8E5HgLeQW_K-17" target="jKOQNRFLOo-bzm7cOAmP-7">
          <mxGeometry relative="1" as="geometry" />
        </mxCell>
        <mxCell id="wEcu8I4KG8E5HgLeQW_K-17" value="id_reserva" style="ellipse;whiteSpace=wrap;html=1;align=center;fontStyle=4;" vertex="1" parent="1">
          <mxGeometry x="820" y="180" width="80" height="40" as="geometry" />
        </mxCell>
        <mxCell id="wEcu8I4KG8E5HgLeQW_K-20" style="rounded=0;orthogonalLoop=1;jettySize=auto;html=1;entryX=1;entryY=0.5;entryDx=0;entryDy=0;endArrow=none;startFill=0;" edge="1" parent="1" source="wEcu8I4KG8E5HgLeQW_K-18" target="jKOQNRFLOo-bzm7cOAmP-7">
          <mxGeometry relative="1" as="geometry" />
        </mxCell>
        <mxCell id="wEcu8I4KG8E5HgLeQW_K-18" value="fecha_reserva" style="ellipse;whiteSpace=wrap;html=1;align=center;" vertex="1" parent="1">
          <mxGeometry x="810" y="240" width="100" height="40" as="geometry" />
        </mxCell>
      </root>
    </mxGraphModel>
  </diagram>
</mxfile>
